<svg xmlns="http://www.w3.org/2000/svg" viewBox="0 0 380 780" width="380" height="780" style="background:#090d16; font-family:'Plus Jakarta Sans', -apple-system, system-ui, sans-serif;">
  <defs>
    <linearGradient id="surfaceGrad" x1="0%" y1="0%" x2="100%" y2="100%">
      <stop offset="0%" stop-color="#151d2f"/>
      <stop offset="100%" stop-color="#0f172a"/>
    </linearGradient>
  </defs>

  <rect width="380" height="85" fill="#0f172a" stroke="#1e293b" stroke-width="1"/>
  <text x="24" y="52" fill="#f8fafc" font-size="17" font-weight="700">Forum Kepadatan &amp; Info Kereta</text>

  <!-- Forum Header -->
  <g transform="translate(20, 105)">
    <rect width="340" height="74" rx="16" fill="url(#surfaceGrad)" stroke="#1e293b" stroke-width="1"/>
    <text x="20" y="32" fill="#ffffff" font-size="14.5" font-weight="700">Diskusi Jalur Bogor &amp; Cikarang</text>
    <text x="20" y="52" fill="#94a3b8" font-size="11.5">Aktivitas Terbaru: <tspan fill="#34d399" font-weight="600">Baru saja</tspan></text>
  </g>

  <!-- Forum Thread Posts -->
  <g transform="translate(20, 195)">
    <rect width="340" height="250" rx="20" fill="url(#surfaceGrad)" stroke="#1e293b" stroke-width="1"/>
    <text x="20" y="28" fill="#ffffff" font-size="13.5" font-weight="700">Kabar Terkini dari Penumpang</text>
    
    <!-- Post 1 -->
    <rect x="20" y="44" width="300" height="60" rx="12" fill="#0f172a" stroke="#1e293b" stroke-width="1"/>
    <circle cx="36" cy="64" r="8" fill="#2563eb"/>
    <text x="52" y="60" fill="#94a3b8" font-size="10.5">Pengguna KA 1184 • 2 mnt lalu</text>
    <text x="52" y="76" fill="#e2e8f0" font-size="11.5" font-weight="600">Gerbong 4 &amp; 5 masih cukup lengang</text>

    <!-- Post 2 -->
    <rect x="20" y="112" width="300" height="60" rx="12" fill="#0f172a" stroke="#1e293b" stroke-width="1"/>
    <circle cx="36" cy="132" r="8" fill="#f59e0b"/>
    <text x="52" y="128" fill="#94a3b8" font-size="10.5">Stasiun Manggarai • 5 mnt lalu</text>
    <text x="52" y="144" fill="#e2e8f0" font-size="11.5" font-weight="600">Peron 11 ramai, lift beroperasi normal</text>

    <!-- Post 3 -->
    <rect x="20" y="180" width="300" height="54" rx="12" fill="#0f172a" stroke="#1e293b" stroke-width="1"/>
    <circle cx="36" cy="200" r="8" fill="#10b981"/>
    <text x="52" y="196" fill="#94a3b8" font-size="10.5">Jalur Tanah Abang • 8 mnt lalu</text>
    <text x="52" y="212" fill="#e2e8f0" font-size="11.5" font-weight="600">Kereta arah Rangkas tepat waktu</text>
  </g>

  <!-- Join Discussion CTA -->
  <g transform="translate(20, 460)">
    <rect width="340" height="235" rx="20" fill="url(#surfaceGrad)" stroke="#1e293b" stroke-width="1"/>
    <text x="20" y="30" fill="#ffffff" font-size="13.5" font-weight="700">Tanya atau Berbagi Info</text>
    <text x="20" y="50" fill="#94a3b8" font-size="11.5">Tanyakan kondisi peron atau bagikan info gerbongmu:</text>

    <rect x="20" y="70" width="300" height="80" rx="12" fill="#0f172a" stroke="#1e293b" stroke-width="1"/>
    <text x="32" y="96" fill="#64748b" font-size="11.5">Tulis pesan atau info kondisi gerbong...</text>

    <rect x="20" y="165" width="300" height="42" rx="12" fill="#2563eb"/>
    <text x="170" y="191" text-anchor="middle" fill="#ffffff" font-size="12.5" font-weight="700">Kirim ke Forum</text>
  </g>
</svg>